# xmcd CD Database Entry
#
# Track frame offsets:
# 150
# 13430
# 29738
# 50435
# 67573
# 83252
# 104550
# 128608
# 146595
# 167978
# 195114
#
# Disc length: 2783 seconds
#
# Revision: 3
# Processed by: cddbd v1.4PL0 Copyright (c) Steve Scherf et al.
# Submitted via: tcd 2.0b
#
DISCID=8a0add0b
DTITLE=SPIKEdrivers - Whiskey River Blues
DYEAR=1900
DGENRE=
TTITLE0=Whiskey River Blues
TTITLE1=Shake That Thing
TTITLE2=One More Kiss
TTITLE3=Live Life Easy
TTITLE4=24 Hour Blues
TTITLE5=Ghost Train Shuffle
TTITLE6=Sitting In A Cornfield
TTITLE7=Talk To Me Mama
TTITLE8=One Way Gal
TTITLE9=Kazoo Me Blues
TTITLE10=Forbidden River Rag
EXTD=
EXTT0=
EXTT1=
EXTT2=
EXTT3=
EXTT4=
EXTT5=
EXTT6=
EXTT7=
EXTT8=
EXTT9=
EXTT10=
PLAYORDER=
